<mxfile host="app.diagrams.net" agent="Mozilla/5.0 (X11; Linux x86_64) AppleWebKit/537.36 (KHTML, like Gecko) Chrome/131.0.0.0 Safari/537.36" version="25.0.3">
  <diagram name="Page-1" id="6346KfGRvW3Ji0fHS2Gi">
    <mxGraphModel dx="1366" dy="679" grid="1" gridSize="10" guides="1" tooltips="1" connect="1" arrows="1" fold="1" page="1" pageScale="1" pageWidth="850" pageHeight="1100" math="0" shadow="0">
      <root>
        <mxCell id="0" />
        <mxCell id="1" parent="0" />
        <mxCell id="ST1_CO8gszetwlbLW0vi-7" value="" style="rounded=0;whiteSpace=wrap;html=1;fillColor=#f8cecc;strokeColor=#b85450;fontSize=15;" vertex="1" parent="1">
          <mxGeometry x="440" y="200" width="270" height="400" as="geometry" />
        </mxCell>
        <mxCell id="ST1_CO8gszetwlbLW0vi-2" value="" style="rounded=0;whiteSpace=wrap;html=1;fillColor=#ffe6cc;strokeColor=#d79b00;fontSize=15;" vertex="1" parent="1">
          <mxGeometry x="70" y="200" width="270" height="400" as="geometry" />
        </mxCell>
        <mxCell id="ST1_CO8gszetwlbLW0vi-22" style="edgeStyle=orthogonalEdgeStyle;rounded=0;orthogonalLoop=1;jettySize=auto;html=1;entryX=0;entryY=0.5;entryDx=0;entryDy=0;startArrow=classic;startFill=1;" edge="1" parent="1" source="ST1_CO8gszetwlbLW0vi-3" target="ST1_CO8gszetwlbLW0vi-14">
          <mxGeometry relative="1" as="geometry" />
        </mxCell>
        <mxCell id="ST1_CO8gszetwlbLW0vi-3" value="/user" style="rounded=1;whiteSpace=wrap;html=1;fontSize=15;" vertex="1" parent="1">
          <mxGeometry x="90" y="530" width="230" height="50" as="geometry" />
        </mxCell>
        <mxCell id="ST1_CO8gszetwlbLW0vi-23" style="edgeStyle=orthogonalEdgeStyle;rounded=0;orthogonalLoop=1;jettySize=auto;html=1;entryX=0;entryY=0.5;entryDx=0;entryDy=0;" edge="1" parent="1" source="ST1_CO8gszetwlbLW0vi-4" target="ST1_CO8gszetwlbLW0vi-12">
          <mxGeometry relative="1" as="geometry" />
        </mxCell>
        <mxCell id="ST1_CO8gszetwlbLW0vi-4" value="/device" style="rounded=1;whiteSpace=wrap;html=1;fontSize=15;" vertex="1" parent="1">
          <mxGeometry x="90" y="390" width="230" height="50" as="geometry" />
        </mxCell>
        <mxCell id="ST1_CO8gszetwlbLW0vi-21" style="edgeStyle=orthogonalEdgeStyle;rounded=0;orthogonalLoop=1;jettySize=auto;html=1;entryX=0;entryY=0.5;entryDx=0;entryDy=0;startArrow=classic;startFill=1;" edge="1" parent="1" source="ST1_CO8gszetwlbLW0vi-5" target="ST1_CO8gszetwlbLW0vi-13">
          <mxGeometry relative="1" as="geometry" />
        </mxCell>
        <mxCell id="ST1_CO8gszetwlbLW0vi-5" value="/device/status" style="rounded=1;whiteSpace=wrap;html=1;fontSize=15;" vertex="1" parent="1">
          <mxGeometry x="90" y="460" width="230" height="50" as="geometry" />
        </mxCell>
        <mxCell id="ST1_CO8gszetwlbLW0vi-19" style="edgeStyle=orthogonalEdgeStyle;rounded=0;orthogonalLoop=1;jettySize=auto;html=1;entryX=0;entryY=0.5;entryDx=0;entryDy=0;" edge="1" parent="1" source="ST1_CO8gszetwlbLW0vi-6" target="ST1_CO8gszetwlbLW0vi-8">
          <mxGeometry relative="1" as="geometry" />
        </mxCell>
        <mxCell id="ST1_CO8gszetwlbLW0vi-25" style="edgeStyle=orthogonalEdgeStyle;rounded=0;orthogonalLoop=1;jettySize=auto;html=1;entryX=0;entryY=0.5;entryDx=0;entryDy=0;" edge="1" parent="1" source="ST1_CO8gszetwlbLW0vi-6" target="ST1_CO8gszetwlbLW0vi-10">
          <mxGeometry relative="1" as="geometry">
            <Array as="points">
              <mxPoint x="205" y="345" />
            </Array>
          </mxGeometry>
        </mxCell>
        <mxCell id="ST1_CO8gszetwlbLW0vi-6" value="/location" style="rounded=1;whiteSpace=wrap;html=1;fontSize=15;" vertex="1" parent="1">
          <mxGeometry x="90" y="250" width="230" height="50" as="geometry" />
        </mxCell>
        <mxCell id="ST1_CO8gszetwlbLW0vi-8" value="Home Screen" style="rounded=1;whiteSpace=wrap;html=1;fontSize=15;" vertex="1" parent="1">
          <mxGeometry x="460" y="250" width="230" height="50" as="geometry" />
        </mxCell>
        <mxCell id="ST1_CO8gszetwlbLW0vi-10" value="Alert Configuration" style="rounded=1;whiteSpace=wrap;html=1;fontSize=15;" vertex="1" parent="1">
          <mxGeometry x="460" y="320" width="230" height="50" as="geometry" />
        </mxCell>
        <mxCell id="ST1_CO8gszetwlbLW0vi-12" value="Device Finding" style="rounded=1;whiteSpace=wrap;html=1;fontSize=15;" vertex="1" parent="1">
          <mxGeometry x="460" y="390" width="230" height="50" as="geometry" />
        </mxCell>
        <mxCell id="ST1_CO8gszetwlbLW0vi-13" value="Device Management" style="rounded=1;whiteSpace=wrap;html=1;fontSize=15;" vertex="1" parent="1">
          <mxGeometry x="460" y="460" width="230" height="50" as="geometry" />
        </mxCell>
        <mxCell id="ST1_CO8gszetwlbLW0vi-14" value="Settings" style="rounded=1;whiteSpace=wrap;html=1;fontSize=15;" vertex="1" parent="1">
          <mxGeometry x="460" y="530" width="230" height="50" as="geometry" />
        </mxCell>
      </root>
    </mxGraphModel>
  </diagram>
</mxfile>
